<?xml version="1.0" standalone="no"?>
<!DOCTYPE svg PUBLIC "-//W3C//DTD SVG 20010904//EN"
 "http://www.w3.org/TR/2001/REC-SVG-20010904/DTD/svg10.dtd">
<svg version="1.0" xmlns="http://www.w3.org/2000/svg"
 width="1024.000000pt" height="1024.000000pt" viewBox="0 0 1024.000000 1024.000000"
 preserveAspectRatio="xMidYMid meet">

<g transform="translate(0.000000,1024.000000) scale(0.100000,-0.100000)"
fill="#000000" stroke="none">
<path d="M4795 9235 c-168 -17 -241 -29 -400 -65 -321 -71 -573 -159 -839
-292 -217 -108 -364 -203 -581 -372 -130 -102 -145 -115 -311 -280 -426 -426
-713 -921 -884 -1525 -26 -92 -72 -316 -84 -406 -3 -16 -7 -48 -10 -70 -3 -22
-8 -56 -11 -75 -2 -19 -7 -145 -11 -280 -9 -352 21 -625 106 -953 67 -261 133
-432 265 -692 91 -178 162 -297 262 -436 346 -483 777 -848 1311 -1110 l162
-80 0 -489 c0 -315 4 -491 10 -495 6 -3 10 -35 10 -69 l0 -63 68 -6 c37 -4
126 -7 199 -7 72 0 134 -4 137 -9 3 -5 14 -7 24 -5 15 4 17 -3 17 -53 0 -32 3
-60 7 -63 3 -3 8 -19 10 -35 2 -17 6 -34 11 -40 4 -5 22 -33 41 -60 27 -41 31
-53 20 -63 -10 -9 -187 -12 -777 -12 -758 0 -765 0 -791 -21 -20 -16 -26 -29
-26 -59 0 -77 -232 -70 2430 -70 l2386 0 23 21 c17 16 21 30 19 57 -2 31 -9
40 -38 54 -32 16 -74 18 -437 18 -261 0 -403 4 -404 10 -1 6 -2 16 -3 23 -2
13 43 87 53 87 3 0 7 12 8 27 0 15 6 29 12 31 6 2 9 8 5 13 -7 11 -25 9 155
18 152 8 155 9 179 36 l24 28 -4 276 -3 276 -62 125 c-91 185 -321 547 -372
587 l-42 32 23 14 c13 8 70 40 128 71 509 279 948 704 1260 1221 242 400 396
826 466 1290 34 220 43 622 19 835 -52 460 -158 822 -359 1218 -123 242 -317
533 -478 718 -280 321 -680 634 -1044 817 -281 141 -639 260 -944 313 -14 2
-41 7 -60 10 -155 27 -256 35 -495 39 -170 3 -291 0 -380 -10z m755 -188 c156
-24 259 -45 365 -72 158 -41 293 -84 297 -96 3 -9 242 -109 261 -109 21 0 247
-114 330 -167 384 -241 584 -426 874 -808 33 -44 79 -99 101 -122 86 -89 239
-349 338 -573 145 -329 236 -693 265 -1058 11 -126 7 -521 -5 -582 -2 -14 -7
-47 -11 -75 -54 -447 -196 -849 -444 -1259 -129 -215 -204 -322 -329 -472
-257 -309 -591 -571 -989 -775 -225 -116 -326 -137 -571 -121 l-103 7 0 130
c0 134 -7 160 -47 193 -12 9 -234 12 -1033 12 l-1018 0 -28 -24 c-27 -24 -28
-27 -31 -145 -2 -78 -8 -121 -14 -121 -18 0 -274 137 -377 201 -288 182 -605
460 -807 709 -350 434 -601 979 -689 1500 -46 273 -59 611 -33 867 27 275 58
424 139 678 167 525 428 955 808 1335 278 277 529 459 870 630 170 86 333 150
493 195 68 18 139 39 158 44 80 25 311 68 455 86 138 17 648 12 775 -8z m190
-6772 l0 -645 -450 0 c-336 0 -450 3 -450 12 0 6 -3 9 -6 5 -5 -4 -55 28 -109
71 -6 5 -16 7 -23 4 -6 -2 -12 1 -12 8 0 6 -3 9 -7 7 -5 -2 -45 -2 -90 2 -46
3 -83 2 -83 -3 0 -4 -9 -6 -20 -3 -11 3 -20 2 -20 -2 0 -9 -101 -57 -112 -54
-4 2 -8 -1 -8 -7 0 -23 -51 -32 -213 -36 -102 -2 -164 0 -152 5 17 7 15 9 -15
12 l-35 4 0 185 c2 631 6 1064 11 1072 3 4 408 8 900 8 l894 0 0 -645z m677
309 c2 -6 15 -9 30 -6 20 4 24 2 18 -8 -6 -10 -4 -12 9 -7 45 18 148 -68 215
-179 23 -38 64 -105 91 -149 28 -44 50 -88 50 -98 0 -16 -17 -17 -267 -15
l-268 3 -3 169 c-1 97 -7 175 -13 182 -5 7 -37 14 -69 16 -51 3 -61 0 -69 -17
-12 -23 -20 -455 -8 -448 4 2 7 -1 7 -7 0 -7 10 -24 23 -39 l22 -26 373 3 373
2 20 -46 c11 -25 18 -52 15 -60 -3 -8 -2 -14 3 -14 17 0 23 -76 16 -197 l-7
-123 -100 0 c-106 0 -113 3 -141 56 -36 69 -144 148 -219 160 -21 4 -36 10
-33 14 7 11 -77 11 -90 0 -6 -5 -27 -11 -46 -12 -19 -2 -36 -5 -39 -8 -3 -3
-26 -18 -51 -33 -55 -32 -105 -86 -130 -141 l-18 -41 -94 3 -95 3 -5 77 c-3
42 -5 280 -4 529 1 298 -1 449 -8 445 -5 -3 -3 2 5 12 13 17 33 18 259 14 164
-2 246 -7 248 -14z m-1807 -1005 c0 -6 8 -8 19 -4 11 3 26 -1 35 -10 9 -9 16
-13 16 -9 0 3 18 -11 39 -32 22 -21 38 -42 35 -46 -3 -4 -1 -8 4 -8 15 0 32
-48 32 -90 0 -137 -149 -229 -275 -171 -71 33 -133 110 -122 152 3 11 1 19 -4
19 -5 0 -9 5 -9 11 0 5 3 8 8 5 4 -2 7 13 7 33 0 26 9 50 28 74 30 40 92 81
107 72 5 -3 10 -1 10 4 0 6 16 11 35 11 19 0 35 -5 35 -11z m1864 0 c-4 -7 0
-9 14 -5 14 5 28 0 41 -13 12 -12 21 -18 21 -15 0 4 7 1 15 -6 8 -7 12 -16 10
-21 -3 -4 4 -13 15 -19 11 -6 18 -15 15 -21 -4 -5 -1 -9 5 -9 7 0 9 -8 5 -20
-3 -11 -3 -20 2 -20 5 0 9 -18 10 -40 1 -22 -3 -40 -8 -40 -6 0 -8 -8 -4 -19
7 -24 -67 -94 -119 -111 -85 -28 -190 22 -228 106 -24 57 -35 114 -20 114 6 0
9 7 6 15 -4 8 -1 15 6 15 6 0 8 5 5 10 -3 6 1 13 9 16 9 3 14 9 11 14 -11 18
74 74 99 64 9 -3 16 -1 16 5 0 6 18 11 41 11 27 0 38 -4 33 -11z m-441 -76
c-7 -2 -19 -2 -25 0 -7 3 -2 5 12 5 14 0 19 -2 13 -5z m-873 -45 c15 -10 22
-10 32 0 15 15 563 18 553 2 -3 -5 -2 -17 4 -27 5 -10 14 -30 20 -46 15 -39
46 -47 187 -47 106 0 124 -2 124 -16 0 -9 5 -12 12 -8 8 5 9 0 6 -14 -4 -12
-3 -22 1 -22 8 0 56 -92 53 -102 -1 -5 3 -8 8 -8 6 0 10 -9 10 -20 0 -20 -7
-20 -664 -20 -372 0 -667 4 -670 9 -3 5 10 28 29 52 46 58 67 125 65 202 -1
34 -2 65 -1 70 2 12 209 8 231 -5z"/>
<path d="M5674 8668 l-19 -23 23 19 c21 18 27 26 19 26 -2 0 -12 -10 -23 -22z"/>
<path d="M5388 8573 c6 -2 18 -2 25 0 6 3 1 5 -13 5 -14 0 -19 -2 -12 -5z"/>
<path d="M4425 8469 c-4 -6 -5 -12 -2 -15 2 -3 7 2 10 11 7 17 1 20 -8 4z"/>
<path d="M3848 8333 c7 -3 16 -2 19 1 4 3 -2 6 -13 5 -11 0 -14 -3 -6 -6z"/>
<path d="M6288 7723 c7 -3 16 -2 19 1 4 3 -2 6 -13 5 -11 0 -14 -3 -6 -6z"/>
<path d="M6426 7611 c-3 -5 2 -15 12 -22 15 -12 16 -12 5 2 -7 9 -10 19 -6 22
3 4 4 7 0 7 -3 0 -8 -4 -11 -9z"/>
<path d="M4200 7556 c0 -2 8 -10 18 -17 15 -13 16 -12 3 4 -13 16 -21 21 -21
13z"/>
<path d="M6630 7396 c0 -2 8 -10 18 -17 15 -13 16 -12 3 4 -13 16 -21 21 -21
13z"/>
<path d="M4940 7325 c-393 -67 -729 -308 -907 -651 -290 -559 -115 -1255 402
-1599 165 -109 326 -171 525 -200 358 -53 745 78 1006 341 189 191 298 395
351 656 21 103 23 341 4 448 -32 181 -124 393 -236 542 -117 155 -318 312
-498 387 -195 81 -446 110 -647 76z m451 -209 c181 -54 309 -128 438 -251 158
-151 269 -357 305 -564 39 -229 11 -444 -84 -646 -154 -325 -439 -540 -791
-595 -74 -12 -271 -9 -334 4 -322 69 -604 286 -741 571 -147 306 -144 647 8
940 150 288 411 486 739 560 46 10 109 14 219 11 132 -3 168 -8 241 -30z"/>
<path d="M5635 6650 c-11 -4 -108 -99 -216 -211 -395 -410 -448 -462 -461
-452 -28 22 -213 160 -255 191 -37 26 -55 32 -95 32 -44 0 -54 -4 -84 -34 -30
-30 -34 -41 -34 -84 0 -59 15 -80 145 -202 50 -46 131 -123 180 -172 117 -113
163 -132 246 -98 15 7 99 98 195 213 93 111 171 204 174 207 12 10 307 366
343 413 41 54 46 89 21 142 -25 53 -101 79 -159 55z"/>
<path d="M6874 7148 l-19 -23 23 19 c21 18 27 26 19 26 -2 0 -12 -10 -23 -22z"/>
<path d="M7771 7144 c0 -11 3 -14 6 -6 3 7 2 16 -1 19 -3 4 -6 -2 -5 -13z"/>
<path d="M7772 7100 c0 -14 2 -19 5 -12 2 6 2 18 0 25 -3 6 -5 1 -5 -13z"/>
<path d="M3359 7083 c-13 -16 -12 -17 4 -4 9 7 17 15 17 17 0 8 -8 3 -21 -13z"/>
<path d="M3225 6834 c-9 -15 -12 -23 -6 -20 11 7 35 46 28 46 -3 0 -12 -12
-22 -26z"/>
<path d="M3248 5933 c12 -2 30 -2 40 0 9 3 -1 5 -23 4 -22 0 -30 -2 -17 -4z"/>
<path d="M4296 5007 c3 -10 9 -15 12 -12 3 3 0 11 -7 18 -10 9 -11 8 -5 -6z"/>
</g>
</svg>
